<?xml version="1.0" encoding="utf-8"?>
<!-- Generator: Adobe Illustrator 27.8.0, SVG Export Plug-In . SVG Version: 6.00 Build 0)  -->
<svg version="1.1" id="Layer_1" xmlns="http://www.w3.org/2000/svg" xmlns:xlink="http://www.w3.org/1999/xlink" x="0px" y="0px"
	 viewBox="0 0 284.5 113.2" style="enable-background:new 0 0 284.5 113.2;" xml:space="preserve">
<style type="text/css">
	.st0{fill:#231F20;}
</style>
<path class="st0" d="M48.7,68.7H37.5v4.9H43v21.7h-6.5v4.9h18.1v-4.9h-5.9L48.7,68.7L48.7,68.7z M74.9,80.9
	c-3.9-0.8-7.8-1.7-7.8-4.6c0-2.9,3.3-4.4,6.5-4.4c5.1,0,8.1,2.4,8.2,6.8l5.5-0.8c-0.7-7.8-6.7-10.5-13.6-10.5c-5.8,0-12,2.7-12,9.3
	c0,6.7,5.2,7.9,10.5,9.2c4.5,1.2,10.5,1.6,10.5,5.2c0,3.4-2.7,5.2-8,5.2s-8.4-2.8-8.3-7.2l-5.3,0.5c-0.1,7.9,6.5,11.2,13.8,11.2
	c6.6,0,13.4-2.2,13.4-10S81.4,82.3,74.9,80.9L74.9,80.9z M4.9,55.4h-5.9v44.7h30.7v-5.1H4.9L4.9,55.4L4.9,55.4z M42.6,62.8h5.8v-6.9
	h-5.8V62.8z M24,24.2c4-1.3,7-5.4,7-10.9C31,1.2,21.2,0.2,13.1,0.2h-14v10.6c0.1,1.4,1.3,2.8,2.7,2.8h2.5c0.3,0,0.6,0.3,0.6,0.6v7.2
	h-5.8v23.4h5.8V26.3h8.8c8,0,10.4,2,10.4,8s0.5,8.3,1.9,10.5h6.4l0.1-0.2c-2.2-2.7-2.6-5.8-2.6-11C29.9,29,28.3,25.8,24,24.2z
	 M13.1,21.4h-2.7v-5c0-1.6-1.6-2.8-3.2-2.8H5.5c-0.3,0-0.6-0.3-0.6-0.6V5.2h8.2c5.5,0,12.1,0,12.1,8.4
	C25.3,20.9,18.7,21.4,13.1,21.4L13.1,21.4z M54.3,45.5c8.3,0,13.5-3.8,14.9-11.3l-5.7-0.5c-0.8,4.9-3.8,7.2-9.3,7.2
	c-6.1,0-9.1-3.4-9.2-10.4h24.7c0.3-4.5-0.8-9.1-2.7-12.1c-2.7-4.2-7.6-6.3-12.7-6.3c-4.7,0-8.7,1.6-11.5,4.8
	c-2.7,3-4.1,7.2-4.1,11.9c0,5,1.2,9.1,4,12.2C45.4,44.1,49.3,45.5,54.3,45.5L54.3,45.5z M46.6,20.1c1.3-2.1,4-3.5,7.7-3.5
	s5.9,1,7.6,3.5c1,1.5,1.7,4,1.8,5.7H45.1C45.1,24.2,45.5,22.1,46.6,20.1z M101.9,40.1v4.7h5.9V0h-5.9v16.9C99.4,13.5,96,12,91.4,12
	c-8.8,0-14.8,6.7-14.8,16.8s6.3,16.8,15,16.8C96,45.5,99.5,43.7,101.9,40.1L101.9,40.1z M92.7,41c-7.6,0-9.6-4.7-9.6-12.2
	c0-3.9,0.6-7,2.2-9.1c1.5-2,3.8-3.1,7.5-3.1c7.9,0,9.3,6.3,9.3,12.2c0,4.3-1,7.5-2.8,9.5C97.7,40.1,95.5,41,92.7,41L92.7,41z
	 M204.5,68.7h-11.2v4.9h5.5v21.7h-6.5v4.9h18.1v-4.9h-5.9V68.7z M234.5,68.5h-16.5v31.8h5.8V73.5h10.3c4.3,0,6,2.1,6,6.6v20.3h5.8
	V80.1C246,74.8,244,68.5,234.5,68.5z M213.6,33.8c-0.8,4.9-3.8,7.2-9.3,7.2c-6.1,0-9.1-3.4-9.2-10.4h24.7c0.3-4.5-0.8-9.1-2.7-12.1
	c-2.7-4.2-7.6-6.3-12.7-6.3c-4.7,0-8.6,1.6-11.5,4.8c-2.7,3-4.1,7.2-4.1,11.9c0,5,1.2,9.1,4,12.2c2.8,3.2,6.7,4.7,11.7,4.7
	c8.3,0,13.5-3.8,14.9-11.3L213.6,33.8L213.6,33.8z M196.7,20.1c1.3-2.1,4-3.5,7.7-3.5s5.9,1,7.6,3.5c1,1.5,1.7,4,1.8,5.7h-18.6
	C195.1,24.2,195.5,22.1,196.7,20.1L196.7,20.1z M278.7,68.2v4.5c-2.3-3.4-5.6-5.2-10.5-5.2c-8.7,0-14.7,6.5-14.7,15.9
	c0,10,5.9,16.5,14.9,16.5c4.5,0,7.9-1.8,10.3-5.5v5.4c0,5.8-3.8,8.9-9.1,8.9s-8.6-1.4-8.9-6.7l-5.6,0.4c0.3,8.1,7.4,10.8,13.9,10.8
	c9.6,0,15.6-5.2,15.6-13.8V68.1L278.7,68.2L278.7,68.2z M276,92.6c-1.5,1.6-3.6,2.6-6.7,2.6c-7.5,0-9.4-4.5-9.4-11.9
	c0-3.8,0.6-6.8,2.5-8.7c1.5-1.7,3.8-2.6,7.1-2.6c6.1,0,9.5,3.8,9.5,11.3C278.9,86.8,278.1,90.3,276,92.6z M104.5,60.1h-5.7v8.7h-5.3
	v4.7h5.3v15.9l0,0v3.3c0.1,1.4,1.3,2.7,2.9,2.7h2.1c0.3,0,0.6,0.1,0.6,0.8v1.1c0,1.6,1,2.8,2.6,2.8h5.7v-4.9H105
	c-0.2,0-0.4-0.1-0.4-0.2c-0.1-0.1-0.1-0.2-0.1-0.3v-4.4l0,0c0-0.2,0-0.3,0-0.5V73.5h8.2v-4.7h-8.2L104.5,60.1L104.5,60.1z
	 M257.4,44.8V0h-5.9v16.9c-2.5-3.4-5.9-4.9-10.5-4.9c-8.8,0-14.8,6.7-14.8,16.8s6.3,16.8,15,16.8c4.4,0,7.9-1.8,10.3-5.4v4.7
	C251.5,44.8,257.4,44.8,257.4,44.8z M248.9,38.4c-1.6,1.7-3.8,2.6-6.6,2.6c-7.6,0-9.6-4.7-9.6-12.2c0-3.9,0.6-7,2.2-9.1
	c1.5-2,3.8-3.1,7.5-3.1c7.9,0,9.3,6.3,9.3,12.2C251.7,33.1,250.8,36.3,248.9,38.4L248.9,38.4z M198.4,55.9v6.9h5.8v-6.9H198.4z
	 M128.1,44.9h16.2V13.5h-5.7v26.4h-10.2c-4.2,0-5.9-2.1-5.9-6.5v-20h-5.7v20C116.8,38.7,118.7,44.9,128.1,44.9L128.1,44.9z
	 M133.1,67.4c-4.7,0-8.6,1.6-11.5,4.8c-2.7,3-4.1,7.2-4.1,11.9c0,5,1.2,9.1,4,12.1c2.8,3.2,6.7,4.7,11.7,4.7
	c8.3,0,13.5-3.8,14.9-11.3l-5.7-0.4c-0.8,4.9-3.8,7.2-9.3,7.2c-6.1,0-9.1-3.4-9.2-10.4h24.7c0.3-4.5-0.8-9.1-2.7-12.1
	C143.2,69.6,138.3,67.4,133.1,67.4L133.1,67.4z M124,81.2c0-1.6,0.4-3.8,1.6-5.7c1.3-2.1,4-3.4,7.7-3.4s5.9,1,7.6,3.4
	c1,1.5,1.7,4,1.8,5.7H124L124,81.2z M181.9,35l-5.5-0.6c-1.2,4.6-3.8,6.5-8.9,6.5c-7.9,0-9.7-4.9-9.7-12.2c0-3.8,0.5-7,2.1-9.1
	c1.5-1.9,3.8-3,7.6-3c5.9,0,7.8,3.6,8.8,7.3l5.5-1c-1.3-6.1-6-10.9-14.2-10.9c-9.9,0-16.1,6.9-16.1,16.8c0,10.5,6.2,16.8,16.1,16.8
	C175.1,45.5,180.8,41.4,181.9,35L181.9,35z M172.5,68.5H156v31.8h5.8V73.5h10.3c4.3,0,6,2.1,6,6.6v20.3h5.8V80.1
	C184,74.8,182,68.5,172.5,68.5L172.5,68.5z"/>
</svg>
