<?xml version="1.0" encoding="utf-8"?>
<!-- Generator: Adobe Illustrator 27.8.0, SVG Export Plug-In . SVG Version: 6.00 Build 0)  -->
<svg version="1.1" id="Layer_1" xmlns="http://www.w3.org/2000/svg" xmlns:xlink="http://www.w3.org/1999/xlink" x="0px" y="0px"
	 viewBox="0 0 564.8 58.1" style="enable-background:new 0 0 564.8 58.1;" xml:space="preserve">
<style type="text/css">
	.st0{fill:#231F20;}
</style>
<path class="st0" d="M138,39.9h-10.2c-4.2,0-5.9-2.1-5.9-6.5v-20h-5.7v20c0,5.2,2,11.4,11.3,11.4h16.2V13.5H138V39.9L138,39.9z
	 M166.9,40.9c-7.9,0-9.7-4.9-9.7-12.2c0-3.8,0.5-7,2.1-9.1c1.5-1.9,3.8-3,7.6-3c5.9,0,7.8,3.6,8.8,7.3l5.5-1
	c-1.3-6.1-6-10.9-14.2-10.9c-9.9,0-16.1,6.9-16.1,16.8c0,10.5,6.2,16.7,16.1,16.7c7.6,0,13.2-4.1,14.4-10.6l-5.5-0.6
	C174.5,39,171.9,40.9,166.9,40.9L166.9,40.9z M23.4,24.2c4-1.3,7-5.4,7-10.9c0-12.1-9.9-13.1-17.9-13.1H-1.6v10.6
	c0.1,1.4,1.3,2.8,2.7,2.8h2.5c0.3,0,0.6,0.3,0.6,0.6v7.2h-5.8v23.4h5.8V26.3h8.8c8,0,10.4,2,10.4,8s0.5,8.3,1.9,10.5h6.4l0.1-0.2
	c-2.2-2.7-2.6-5.8-2.6-10.9C29.3,29,27.6,25.8,23.4,24.2z M12.4,21.4H9.8v-5c0-1.6-1.6-2.8-3.2-2.8H4.9c-0.3,0-0.6-0.3-0.6-0.6V5.2
	h8.2c5.5,0,12.1,0,12.1,8.4C24.6,20.9,18,21.4,12.4,21.4L12.4,21.4z M101.2,16.9c-2.5-3.4-5.9-4.9-10.5-4.9C82,12,76,18.7,76,28.8
	s6.3,16.8,15,16.8c4.4,0,7.9-1.8,10.3-5.4v4.7h5.9V0h-5.9C101.2,0,101.2,16.9,101.2,16.9z M98.6,38.4C97.1,40.1,94.9,41,92,41
	c-7.6,0-9.6-4.7-9.6-12.2c0-3.9,0.6-7,2.2-9.1c1.5-2,3.8-3.1,7.5-3.1c7.9,0,9.3,6.3,9.3,12.2C101.4,33.1,100.5,36.3,98.6,38.4
	L98.6,38.4z M53.6,12c-4.7,0-8.7,1.6-11.5,4.8c-2.7,3-4.1,7.2-4.1,11.9c0,5,1.2,9.1,4,12.1c2.8,3.2,6.7,4.7,11.7,4.7
	c8.3,0,13.5-3.8,14.9-11.3l-5.7-0.4c-0.8,4.9-3.8,7.2-9.3,7.2c-6.1,0-9.1-3.4-9.2-10.4H69c0.3-4.5-0.8-9.1-2.7-12.1
	C63.6,14.2,58.7,12,53.6,12L53.6,12z M44.4,25.8c0-1.6,0.4-3.8,1.6-5.7c1.3-2.1,4-3.5,7.7-3.5s5.9,1,7.6,3.5c1,1.5,1.7,4,1.8,5.7
	H44.4z M328.9,0.8h-5.8v6.9h5.8V0.8z M484.6,0.8h-5.8v6.9h5.8V0.8z M484.9,13.6h-11.2v4.9h5.5v21.7h-6.5V45h18.1v-4.9h-5.9
	L484.9,13.6L484.9,13.6z M413.5,12.3c-4.7,0-8.6,1.6-11.5,4.8c-2.7,3-4.1,7.2-4.1,11.9c0,5,1.2,9.1,4,12.1c2.8,3.2,6.7,4.7,11.7,4.7
	c8.3,0,13.5-3.8,14.9-11.3l-5.7-0.4c-0.8,4.9-3.8,7.2-9.3,7.2c-6.1,0-9.1-3.4-9.2-10.4h24.7c0.3-4.5-0.8-9.1-2.7-12.1
	C423.5,14.5,418.6,12.3,413.5,12.3z M404.3,26.1c0-1.6,0.4-3.8,1.6-5.7c1.3-2.1,4-3.5,7.7-3.5s5.9,1,7.6,3.5c1,1.5,1.7,4,1.8,5.7
	H404.3L404.3,26.1z M452.9,13.4h-16.5v31.8h5.8V18.4h10.3c4.3,0,6,2.1,6,6.6v20.3h5.8V25C464.4,19.7,462.4,13.4,452.9,13.4
	L452.9,13.4z M558.9,13.1v4.5c-2.3-3.4-5.6-5.2-10.5-5.2c-8.7,0-14.7,6.5-14.7,15.9c0,10,5.9,16.6,14.9,16.6c4.5,0,7.9-1.8,10.3-5.5
	v5.4c0,5.8-3.8,8.9-9.1,8.9s-8.7-1.4-8.9-6.7l-5.6,0.4c0.3,8.1,7.4,10.8,13.9,10.8c9.6,0,15.6-5.2,15.6-13.8V13.1L558.9,13.1
	L558.9,13.1z M556.2,37.6c-1.5,1.6-3.6,2.6-6.7,2.6c-7.5,0-9.4-4.5-9.4-12c0-3.8,0.7-6.8,2.5-8.7c1.5-1.7,3.8-2.6,7.1-2.6
	c6.1,0,9.5,3.8,9.5,11.3C559.1,31.7,558.3,35.3,556.2,37.6z M514.7,13.4h-16.5v31.8h5.8V18.4h10.3c4.3,0,6,2.1,6,6.6v20.3h5.8V25
	C526.2,19.7,524.2,13.4,514.7,13.4L514.7,13.4z M355.3,25.9c-3.9-0.8-7.8-1.7-7.8-4.6s3.3-4.4,6.5-4.4c5.1,0,8.1,2.4,8.2,6.8
	l5.5-0.8c-0.7-7.8-6.7-10.5-13.6-10.5c-5.8,0-12,2.7-12,9.3s5.2,7.9,10.5,9.2c4.5,1.2,10.5,1.6,10.5,5.2c0,3.4-2.7,5.2-8,5.2
	s-8.4-2.8-8.3-7.2l-5.3,0.5c-0.1,7.9,6.5,11.2,13.8,11.2c6.6,0,13.4-2.2,13.4-10S361.8,27.2,355.3,25.9L355.3,25.9z M286.3,0.3h-5.9
	V45h30.1V40h-24.3L286.3,0.3L286.3,0.3z M384.8,5h-5.7v8.7h-5.3v4.7h5.3v15.9l0,0v3.3c0.1,1.4,1.3,2.7,2.9,2.7h2.1
	c0.3,0,0.6,0.1,0.6,0.8v1.1c0,1.6,1,2.8,2.6,2.8h5.7v-4.9h-7.7c-0.2,0-0.4-0.1-0.5-0.2c0-0.1-0.1-0.2-0.1-0.3v-4.4l0,0
	c0-0.2,0-0.3,0-0.5V18.4h8.2v-4.7h-8.2L384.8,5L384.8,5z M250.3,16.9c-2.5-3.4-5.9-4.9-10.5-4.9c-8.8,0-14.8,6.7-14.8,16.8
	s6.3,16.8,15,16.8c4.4,0,7.9-1.8,10.3-5.4v4.7h5.9V0h-5.9C250.3,0,250.3,16.9,250.3,16.9z M247.7,38.4c-1.6,1.7-3.8,2.6-6.6,2.6
	c-7.6,0-9.6-4.7-9.6-12.2c0-3.9,0.6-7,2.2-9.1c1.5-2,3.8-3.1,7.5-3.1c7.9,0,9.3,6.3,9.3,12.2C250.5,33.1,249.5,36.3,247.7,38.4
	L247.7,38.4z M203.1,12c-4.7,0-8.6,1.6-11.5,4.8c-2.7,3-4.1,7.2-4.1,11.9c0,5,1.2,9.1,4,12.1c2.8,3.2,6.7,4.7,11.7,4.7
	c8.3,0,13.5-3.8,14.9-11.3l-5.7-0.4c-0.8,4.9-3.8,7.2-9.3,7.2c-6.1,0-9.1-3.4-9.2-10.4h24.7c0.3-4.5-0.8-9.1-2.7-12.1
	C213.1,14.2,208.2,12,203.1,12L203.1,12z M193.9,25.8c0-1.6,0.4-3.8,1.6-5.7c1.3-2.1,4-3.5,7.7-3.5s5.9,1,7.6,3.5
	c1,1.5,1.7,4,1.8,5.7H193.9L193.9,25.8z M329.2,13.6h-11.2v4.9h5.4v21.7H317V45h18.1v-4.9h-5.9L329.2,13.6L329.2,13.6z"/>
</svg>
